Coordinates
version=1
nRows=126
nColumns=11
inDegrees=no

Units are S.I. units (second, meters, Newtons, ...)
If the header above contains a line with 'inDegrees', this indicates whether rotational values are in degrees (yes) or radians (no).

endheader
time	pelvis_tilt	pelvis_tx	pelvis_ty	hip_flexion_r	knee_angle_r	ankle_angle_r	hip_flexion_l	knee_angle_l	ankle_angle_l	lumbar_extension
0.01	-0.0106599	0.0658241	1.0174	-0.0136835	-0.0411204	0.116814	-0.0622928	0.0647913	0.0645	0
0.02	-0.0101081	0.0661729	1.01742	0.00260431	-0.0735089	0.139696	-0.0636871	0.0656073	0.0642855	0
0.03	-0.0116844	0.0657167	1.01727	0.0063517	-0.0765492	0.140963	-0.0607115	0.0642133	0.0644192	0
0.04	-0.0122364	0.0654734	1.01714	0.00767749	-0.0775267	0.136333	-0.0594963	0.0634631	0.0651075	0
0.05	-0.0129422	0.065055	1.01706	0.00921582	-0.0781927	0.132696	-0.0580611	0.0630156	0.0650722	0
0.06	-0.0137844	0.0646336	1.01706	0.0109262	-0.0789142	0.132207	-0.0567546	0.0631062	0.0641057	0
0.07	-0.014606	0.0644209	1.01705	0.0119958	-0.0786652	0.133042	-0.0561366	0.0641337	0.0629637	0
0.08	-0.0150806	0.0643307	1.01706	0.0122539	-0.0779938	0.1362	-0.0565116	0.0660382	0.0620431	0
0.09	-0.0153014	0.0642892	1.01705	0.0119904	-0.076888	0.137711	-0.0579607	0.0692347	0.0604662	0
0.1	-0.0156933	0.0642512	1.01702	0.0119012	-0.0760574	0.133895	-0.0595827	0.0730654	0.0583928	0
0.11	-0.0167351	0.063956	1.01692	0.0135492	-0.0764374	0.132888	-0.0595139	0.0756054	0.0565733	0
0.12	-0.0190292	0.0631141	1.01669	0.0179803	-0.0781914	0.134176	-0.0561438	0.0758199	0.0557633	0
0.13	-0.0219698	0.0621433	1.01638	0.0223507	-0.0783712	0.13209	-0.0516706	0.0753544	0.0556542	0
0.14	-0.0233422	0.0620393	1.0163	0.0226744	-0.0759951	0.129904	-0.0501865	0.0756274	0.0553545	0
0.15	-0.024365	0.0619055	1.01627	0.0229562	-0.0742534	0.129428	-0.0490728	0.0759048	0.0545012	0
0.16	-0.0265946	0.0611092	1.01613	0.0264285	-0.0746855	0.129828	-0.04578	0.0759054	0.0531107	0
0.17	-0.0303876	0.0591199	1.01592	0.0323804	-0.0774203	0.129153	-0.0403317	0.0741259	0.0530944	0
0.18	-0.0328194	0.0582062	1.0157	0.0372013	-0.0797732	0.129333	-0.0355611	0.0719489	0.0532342	0
0.19	-0.0326459	0.0586146	1.01553	0.0397059	-0.0816148	0.128476	-0.0329527	0.0697109	0.0536528	0
0.2	-0.0347827	0.0579083	1.01527	0.0427766	-0.0821627	0.127601	-0.0297029	0.0687448	0.0529349	0
0.21	-0.0359962	0.0578371	1.01514	0.0437745	-0.0826427	0.128996	-0.0283275	0.0671548	0.052004	0
0.22	-0.0376929	0.0577134	1.01507	0.0453418	-0.0834662	0.129549	-0.0268366	0.0656716	0.0527003	0
0.23	-0.0393496	0.0574892	1.01504	0.0459676	-0.0824592	0.130242	-0.0267294	0.0669069	0.0534681	0
0.24	-0.0406559	0.05754	1.01505	0.0448859	-0.0796363	0.131582	-0.0285835	0.0708033	0.0529395	0
0.25	-0.0420612	0.0572865	1.01499	0.0451837	-0.0788726	0.129039	-0.028692	0.0725944	0.0531815	0
0.26	-0.0440008	0.0568209	1.01488	0.0477577	-0.0807395	0.125978	-0.0266847	0.0722789	0.0553008	0
0.27	-0.0453203	0.0567519	1.01483	0.0486596	-0.081602	0.123618	-0.0267716	0.0738014	0.0581478	0
0.28	-0.0459929	0.0568669	1.01483	0.0468858	-0.0790993	0.124541	-0.0281997	0.0757037	0.0599971	0
0.29	-0.0466135	0.0568335	1.01486	0.0451944	-0.0766894	0.128223	-0.029788	0.0780251	0.059276	0
0.3	-0.0471807	0.0566852	1.01493	0.0448302	-0.0767201	0.132255	-0.0292071	0.076683	0.0578795	0
0.31	-0.0476608	0.0566778	1.01495	0.0451221	-0.0781691	0.134765	-0.0293419	0.0759386	0.057026	0
0.32	-0.0481542	0.0567208	1.01485	0.0440615	-0.0769964	0.134592	-0.0305796	0.0772579	0.0568492	0
0.33	-0.0488772	0.0567284	1.01469	0.0426761	-0.0747493	0.135106	-0.0313079	0.0777511	0.0581178	0
0.34	-0.0498755	0.0565463	1.01464	0.0422339	-0.073907	0.135647	-0.0321719	0.0792384	0.0594467	0
0.35	-0.050905	0.0563998	1.01466	0.0428598	-0.0747462	0.136536	-0.0328416	0.0804177	0.0605958	0
0.36	-0.0516157	0.0563693	1.01472	0.0429638	-0.075308	0.137075	-0.0335179	0.0812743	0.0608576	0
0.37	-0.0523416	0.0562567	1.01484	0.0429809	-0.0759498	0.138742	-0.0332581	0.0805805	0.0605304	0
0.38	-0.053164	0.0561026	1.01488	0.0430537	-0.0769353	0.144242	-0.0329458	0.0795962	0.0593797	0
0.39	-0.0540173	0.0559892	1.01478	0.0429117	-0.0773634	0.145573	-0.0329638	0.078681	0.0614604	0
0.4	-0.0547151	0.0560295	1.01476	0.0426521	-0.0782448	0.142596	-0.0332254	0.0777244	0.0661009	0
0.41	-0.0566226	0.0551387	1.01493	0.0423942	-0.0792	0.142599	-0.0332253	0.0764217	0.070311	0
0.42	-0.0549534	0.0565441	1.01505	0.0393958	-0.079224	0.144733	-0.0356168	0.0751657	0.0730888	0
0.43	-0.0545325	0.0569764	1.01522	0.0376488	-0.0806307	0.147536	-0.0374799	0.0741719	0.0749955	0
0.44	-0.0547701	0.0573316	1.01527	0.0367853	-0.0823759	0.150842	-0.0390565	0.0738677	0.0773471	0
0.45	-0.0549538	0.0576944	1.01528	0.0362187	-0.0846876	0.153748	-0.0406797	0.0733968	0.0782294	0
0.46	-0.0551542	0.0579534	1.01523	0.0360334	-0.0873474	0.157416	-0.0416658	0.0721916	0.0756816	0
0.47	-0.0556296	0.0580587	1.01524	0.0364288	-0.090746	0.16065	-0.041866	0.070269	0.077	0
0.48	-0.0560689	0.0581572	1.01525	0.0372095	-0.0946821	0.163172	-0.0419445	0.067863	0.0826205	0
0.49	-0.0560277	0.0582747	1.01528	0.0378283	-0.098859	0.163601	-0.0428133	0.0658254	0.0861264	0
0.5	-0.0567368	0.0581391	1.01535	0.0411775	-0.106125	0.166808	-0.0428575	0.0647402	0.0867626	0
0.51	-0.0549109	0.0593612	1.01481	0.0395919	-0.111158	0.174203	0.039888	-0.0959177	0.163151	0
0.52	-0.0580691	0.0584298	1.01475	0.0497492	-0.127154	0.177109	0.0403916	-0.0941834	0.16495	0
0.53	-0.0570969	0.0592007	1.01492	0.0508274	-0.135627	0.180728	0.0290174	-0.0801758	0.161745	0
0.54	-0.0525918	0.0609151	1.01527	0.0474128	-0.144002	0.189096	0.0130535	-0.0657675	0.158886	0
0.55	-0.0557153	0.0608109	1.0151	0.0567378	-0.156629	0.1956	0.00789396	-0.0513143	0.155126	0
0.56	-0.0552539	0.0609539	1.01534	0.0637784	-0.174734	0.200941	0.000469144	-0.0417097	0.151178	0
0.57	-0.0541111	0.0615565	1.0154	0.0700662	-0.192894	0.210181	-0.00586554	-0.0357325	0.149495	0
0.58	-0.0527442	0.062013	1.01532	0.0774667	-0.214153	0.221142	-0.0126691	-0.0304144	0.15005	0
0.59	-0.0505692	0.0624578	1.01519	0.0856166	-0.23791	0.227074	-0.0203692	-0.0248058	0.15044	0
0.6	-0.0490451	0.0626823	1.01518	0.0960624	-0.264586	0.234941	-0.028435	-0.0171717	0.149316	0
0.61	-0.0472359	0.062891	1.01512	0.108021	-0.295206	0.241842	-0.0369943	-0.0101378	0.149455	0
0.62	-0.0218953	0.0677877	1.01654	0.0942914	-0.336294	0.245442	-0.07054	-0.0152731	0.153104	0
0.63	-0.0448041	0.0634327	1.01486	0.137282	-0.360707	0.246677	-0.050016	0.000847062	0.151426	0
0.64	-0.0451366	0.0630378	1.01466	0.157885	-0.39953	0.238527	-0.0528345	0.00409201	0.15274	0
0.65	-0.0437707	0.0631139	1.01462	0.17511	-0.436064	0.23191	-0.0575032	0.00594214	0.154283	0
0.66	-0.0568506	0.0601497	1.0136	0.214102	-0.475777	0.226567	-0.0426554	0.00861064	0.148449	0
0.67	-0.0569327	0.060131	1.01362	0.234709	-0.513952	0.219034	-0.0458748	0.0107948	0.147932	0
0.68	-0.0573898	0.059827	1.0137	0.256306	-0.550832	0.211191	-0.0472384	0.0117897	0.148079	0
0.69	-0.0596923	0.0585436	1.01352	0.281252	-0.587635	0.202196	-0.0443975	0.0103891	0.148601	0
0.7	-0.0614837	0.0573754	1.01328	0.30384	-0.619657	0.193582	-0.0443608	0.012767	0.147534	0
0.71	-0.0598875	0.0580141	1.01356	0.316112	-0.640792	0.189748	-0.051148	0.0167553	0.14514	0
0.72	-0.0579244	0.0588665	1.01386	0.325305	-0.654565	0.189269	-0.0585805	0.0204722	0.145158	0
0.73	-0.0391595	0.063251	1.01529	0.308575	-0.65761	0.193441	-0.0881359	0.0238758	0.152811	0
0.74	-0.0561354	0.0592747	1.01422	0.342126	-0.661099	0.197019	-0.0699598	0.028339	0.146425	0
0.75	-0.0584039	0.058519	1.01406	0.352904	-0.65619	0.193825	-0.0693134	0.0289883	0.146561	0
0.76	-0.0594221	0.0581731	1.01403	0.35918	-0.643255	0.192483	-0.0708858	0.0304666	0.145122	0
0.77	-0.0602016	0.0579271	1.01401	0.362983	-0.623257	0.189055	-0.0720736	0.030585	0.146238	0
0.78	-0.0616155	0.0575825	1.01394	0.365875	-0.598789	0.186338	-0.072492	0.0307005	0.148256	0
0.79	-0.0632964	0.0573046	1.01391	0.366993	-0.569926	0.185033	-0.0734993	0.0319488	0.150211	0
0.8	-0.0649665	0.0570346	1.01384	0.366387	-0.536426	0.183154	-0.0734756	0.0309508	0.153236	0
0.81	-0.0659279	0.0569883	1.0136	0.363056	-0.499136	0.178572	-0.0756403	0.0317258	0.155037	0
0.82	-0.0666092	0.0569522	1.01334	0.358107	-0.45866	0.172766	-0.0800943	0.0364362	0.157422	0
0.83	-0.0677846	0.056569	1.01307	0.353702	-0.417139	0.164704	-0.0826097	0.0394911	0.156558	0
0.84	-0.0686273	0.0563641	1.01286	0.34828	-0.374661	0.151968	-0.0821221	0.0360026	0.158973	0
0.85	-0.0682231	0.0569236	1.01265	0.33949	-0.32974	0.136083	-0.0849174	0.0344023	0.162901	0
0.86	-0.067804	0.0575134	1.01229	0.331073	-0.287237	0.121895	-0.0907515	0.0380797	0.164047	0
0.87	-0.0537258	0.0606482	1.01289	0.303292	-0.243986	0.108526	-0.115507	0.0423276	0.169331	0
0.88	-0.0534381	0.0611414	1.0124	0.29523	-0.204577	0.0927037	-0.120815	0.0453291	0.173987	0
0.89	-0.0526319	0.0616763	1.012	0.287367	-0.168853	0.0760751	-0.125035	0.0453135	0.181101	0
0.9	-0.0670656	0.0594592	1.01028	0.30106	-0.136444	0.057679	-0.108175	0.0460626	0.178776	0
0.91	-0.0537274	0.0625312	1.0108	0.274715	-0.104965	0.0458279	-0.130735	0.0464339	0.184057	0
0.92	-0.0514498	0.0636003	1.01042	0.265452	-0.078164	0.037655	-0.138596	0.049048	0.18627	0
0.93	-0.0508691	0.064117	1.00996	0.260383	-0.0574792	0.0344881	-0.14477	0.0532514	0.188688	0
0.94	-0.0504024	0.0645989	1.00944	0.256137	-0.0415897	0.0327782	-0.150451	0.0567757	0.192332	0
0.95	-0.0499143	0.0649541	1.00885	0.252474	-0.0302147	0.030694	-0.155026	0.0579768	0.196797	0
0.96	-0.0477772	0.0658433	1.0084	0.246607	-0.0227909	0.0309893	-0.161801	0.0588278	0.199595	0
0.97	-0.0425052	0.0682478	1.00753	0.23586	-0.0178571	0.0347698	-0.175102	0.0640003	0.203108	0
0.98	-0.0407459	0.0690158	1.00687	0.232437	-0.0217244	0.0331267	-0.18347	0.068476	0.204954	0
0.99	-0.0367391	0.0704356	1.0069	0.224151	-0.0270423	0.0275316	-0.19567	0.0738599	0.206068	0
1	-0.033972	0.0718963	1.00643	0.218279	-0.0315337	0.0210346	-0.203608	0.0732106	0.213059	0
1.01	-0.043948	0.0708179	1.00516	0.229812	-0.0336958	0.010819	-0.193692	0.0719814	0.214961	0
1.02	-0.0421769	0.072547	1.00476	0.225725	-0.0330652	0.00252214	-0.196387	0.067204	0.220168	0
1.03	-0.0295864	0.0752608	1.0053	0.202105	-0.0257583	-0.00344596	-0.216352	0.0639522	0.228344	0
1.04	-0.0264607	0.0768423	1.00497	0.192655	-0.0206119	-0.0128517	-0.224514	0.0636045	0.233969	0
1.05	-0.0244009	0.0780552	1.00444	0.187552	-0.0219472	-0.0250217	-0.230867	0.0625476	0.239724	0
1.06	-0.0217933	0.0798441	1.0041	0.181643	-0.0233043	-0.0391277	-0.238098	0.0613114	0.244845	0
1.07	-0.018057	0.0815963	1.00392	0.174092	-0.0231608	-0.048349	-0.24653	0.0593678	0.250122	0
1.08	-0.0152424	0.0827938	1.00369	0.168517	-0.0239544	-0.050772	-0.252183	0.0546042	0.253882	0
1.09	-0.0131927	0.0838057	1.00344	0.164684	-0.0263348	-0.052707	-0.255013	0.0474658	0.259388	0
1.1	-0.0119959	0.0850386	1.00325	0.161317	-0.0289394	-0.0547831	-0.257157	0.0406541	0.266846	0
1.11	-0.00687744	0.0868387	1.00352	0.153354	-0.0337016	-0.0557447	-0.263872	0.0314373	0.272854	0
1.12	-0.00416595	0.0881583	1.00365	0.151075	-0.041544	-0.0501103	-0.268194	0.0244254	0.276623	0
1.13	-0.00218349	0.0890843	1.00364	0.150153	-0.0506766	-0.0468513	-0.268577	0.0128133	0.285127	0
1.14	-0.0007522	0.0899586	1.00356	0.14788	-0.0577243	-0.0442141	-0.26519	-0.00434662	0.295044	0
1.15	0.000164946	0.0909988	1.00363	0.144881	-0.0614984	-0.0387042	-0.261046	-0.0221653	0.301829	0
1.16	0.00179861	0.0920152	1.00401	0.140904	-0.0649172	-0.028604	-0.257818	-0.0396736	0.308809	0
1.17	0.004	0.0932974	1.00419	0.135181	-0.0677761	-0.0192286	-0.256758	-0.0544583	0.314841	0
1.18	0.00621677	0.0946067	1.00448	0.128578	-0.0689955	-0.0135052	-0.255076	-0.0703919	0.319095	0
1.19	0.00814884	0.0958372	1.00479	0.122821	-0.0711953	-0.00516871	-0.252285	-0.0871618	0.32378	0
1.2	0.0106386	0.0968119	1.00521	0.116292	-0.0738583	0.00329182	-0.250192	-0.104182	0.32742	0
1.21	0.0148007	0.0984664	1.0057	0.106506	-0.0740225	0.00734396	-0.250223	-0.120598	0.329283	0
1.22	0.0166672	0.0994253	1.00611	0.0991209	-0.071953	0.0126704	-0.246659	-0.138446	0.330297	0
1.23	0.0175486	0.100015	1.00657	0.0935416	-0.0704079	0.0193549	-0.241908	-0.156462	0.33077	0
1.24	0.018406	0.100539	1.00703	0.0880273	-0.0699717	0.0231867	-0.237127	-0.173852	0.330584	0
1.25	0.0194236	0.100947	1.00753	0.0821866	-0.069305	0.0277648	-0.23267	-0.190364	0.330947	0
1.26	0.0205428	0.101324	1.00788	0.0767135	-0.0687888	0.0341545	-0.225492	-0.211871	0.332208	0
